<?xml version="1.0" encoding="UTF-8" standalone="no" ?>
<!DOCTYPE svg PUBLIC "-//W3C//DTD SVG 1.1//EN" "http://www.w3.org/Graphics/SVG/1.1/DTD/svg11.dtd">
<svg xmlns="http://www.w3.org/2000/svg" xmlns:xlink="http://www.w3.org/1999/xlink" version="1.1" width="100%" height="100%" viewBox="0 0 1280 920">
<desc>Pathos ASBL</desc>
<defs>
</defs>
<g transform="matrix(1 0 0 1 640 512)" id="background-logo"  >
<rect style="stroke: none; stroke-width: 0; stroke-dasharray: none; stroke-linecap: butt; stroke-dashoffset: 0; stroke-linejoin: miter; stroke-miterlimit: 4; fill: rgb(255,255,255); fill-opacity: 0; fill-rule: nonzero; opacity: 1;"  paint-order="stroke"  x="-640" y="-512" rx="0" ry="0" width="1280" height="1024" />
</g>
<g transform="matrix(1.9211538461538462 0 0 1.9211538461538462 640 382.51705491890175)" id="logo-logo"  >
<g style=""  paint-order="stroke"   >
		<g transform="matrix(0.34961543454498295 0 0 0.3496154345449829 -57.93307625896881 -64.39916304318587)"  >
<g style=""  paint-order="stroke"   >
		<g transform="matrix(1 0 0 1 -63.176763473321046 13.928083932232994)"  >
<linearGradient id="SVGID_10_809274" gradientUnits="userSpaceOnUse" gradientTransform="matrix(1 0 0 1 237.7 227.3)"  x1="0" y1="0" x2="0" y2="219">
<stop offset="0%" style="stop-color:rgb(250,217,97);stop-opacity: 1"/>
<stop offset="100%" style="stop-color:rgb(247,107,28);stop-opacity: 1"/>
</linearGradient>
<path style="stroke: none; stroke-width: 1; stroke-dasharray: none; stroke-linecap: butt; stroke-dashoffset: 0; stroke-linejoin: miter; stroke-miterlimit: 4; fill: url(#SVGID_10_809274); fill-rule: nonzero; opacity: 1;"  paint-order="stroke"  transform=" translate(-271.1180915740041, -336.8)" d="M 293.1 227.3 C 259.1 227.3 243.20000000000002 352.3 237.70000000000002 409.1 C 257 418.5 274.6 431.1 289.90000000000003 446.3 C 289.40000000000003 431.6 289.1 414 289.1 392.90000000000003 C 289.3 305.9 320.9 227.3 293.1 227.3 z" stroke-linecap="round" />
</g>
		<g transform="matrix(1 0 0 1 5.559262513179647 -39.69999999999999)"  >
<linearGradient id="SVGID_10_809275" gradientUnits="userSpaceOnUse" gradientTransform="matrix(1 0 0 1 306.5 199.44383213553402)"  x1="0" y1="0" x2="0" y2="167">
<stop offset="0%" style="stop-color:rgb(250,217,97);stop-opacity: 1"/>
<stop offset="100%" style="stop-color:rgb(247,107,28);stop-opacity: 1"/>
</linearGradient>
<path style="stroke: none; stroke-width: 1; stroke-dasharray: none; stroke-linecap: butt; stroke-dashoffset: 0; stroke-linejoin: miter; stroke-miterlimit: 4; fill: url(#SVGID_10_809275); fill-rule: nonzero; opacity: 1;"  paint-order="stroke"  transform=" translate(-339.8541175605048, -283.17191606776703)" d="M 366.4 200.3 C 339.09999999999997 190.3 321.7 271.20000000000005 321.7 271.20000000000005 L 306.5 366.90000000000003 C 318.8 334.40000000000003 339.1 305.8 365 283.5 C 371.9 234.2 378.7 204.8 366.4 200.3 z" stroke-linecap="round" />
</g>
		<g transform="matrix(1 0 0 1 71.44999999999999 -79.698447762012)"  >
<linearGradient id="SVGID_10_809276" gradientUnits="userSpaceOnUse" gradientTransform="matrix(1 0 0 1 380.59999999999997 215.04693661151003)"  x1="0" y1="0" x2="0" y2="56">
<stop offset="0%" style="stop-color:rgb(250,217,97);stop-opacity: 1"/>
<stop offset="100%" style="stop-color:rgb(247,107,28);stop-opacity: 1"/>
</linearGradient>
<path style="stroke: none; stroke-width: 1; stroke-dasharray: none; stroke-linecap: butt; stroke-dashoffset: 0; stroke-linejoin: miter; stroke-miterlimit: 4; fill: url(#SVGID_10_809276); fill-rule: nonzero; opacity: 1;"  paint-order="stroke"  transform=" translate(-405.74485504732513, -243.17346830575502)" d="M 424.9 215.3 C 407.4 211.9 391.29999999999995 243.4 380.59999999999997 271.3 C 394.99999999999994 261.1 410.7 252.70000000000002 427.4 246.5 C 431.9 229.5 433 216.9 424.9 215.3 z" stroke-linecap="round" />
</g>
</g>
</g>
		<g transform="matrix(0.34961543454498295 0 0 0.3496154345449829 57.933076258968754 -64.36420149973148)"  >
<g style=""  paint-order="stroke"   >
		<g transform="matrix(1 0 0 1 63.17534102351283 13.978083932232948)"  >
<linearGradient id="SVGID_10_809277" gradientUnits="userSpaceOnUse" gradientTransform="matrix(1 0 0 1 695.4609719523753 227.39999999999995)"  x1="0" y1="0" x2="0" y2="219">
<stop offset="0%" style="stop-color:rgb(250,217,97);stop-opacity: 1"/>
<stop offset="100%" style="stop-color:rgb(247,107,28);stop-opacity: 1"/>
</linearGradient>
<path style="stroke: none; stroke-width: 1; stroke-dasharray: none; stroke-linecap: butt; stroke-dashoffset: 0; stroke-linejoin: miter; stroke-miterlimit: 4; fill: url(#SVGID_10_809277); fill-rule: nonzero; opacity: 1;"  paint-order="stroke"  transform=" translate(-728.8804859761876, -336.94999999999993)" d="M 762.3 409.2 C 756.8 352.4 740.9 227.39999999999998 706.9 227.39999999999998 C 679.1 227.39999999999998 710.6999999999999 306 710.8 393.09999999999997 C 710.8 414.09999999999997 710.5 431.79999999999995 710 446.49999999999994 C 725.3 431.1 743 418.6 762.3 409.2 z" stroke-linecap="round" />
</g>
		<g transform="matrix(1 0 0 1 -5.559262513179647 -39.799999999999955)"  >
<linearGradient id="SVGID_10_809278" gradientUnits="userSpaceOnUse" gradientTransform="matrix(1 0 0 1 626.7917648789903 199.44383213553408)"  x1="0" y1="0" x2="0" y2="167">
<stop offset="0%" style="stop-color:rgb(250,217,97);stop-opacity: 1"/>
<stop offset="100%" style="stop-color:rgb(247,107,28);stop-opacity: 1"/>
</linearGradient>
<path style="stroke: none; stroke-width: 1; stroke-dasharray: none; stroke-linecap: butt; stroke-dashoffset: 0; stroke-linejoin: miter; stroke-miterlimit: 4; fill: url(#SVGID_10_809278); fill-rule: nonzero; opacity: 1;"  paint-order="stroke"  transform=" translate(-660.1458824394952, -283.17191606776703)" d="M 633.6 200.3 C 621.3000000000001 204.8 628.1 234.3 635 283.5 L 635 283.5 C 660.9 305.8 681.1 334.4 693.5 366.9 L 678.3 271.2 C 678.3 271.2 660.9 190.3 633.6 200.3 z" stroke-linecap="round" />
</g>
		<g transform="matrix(1 0 0 1 -71.45000000000005 -79.84845404833598)"  >
<linearGradient id="SVGID_10_809279" gradientUnits="userSpaceOnUse" gradientTransform="matrix(1 0 0 1 569.1102899053496 215.04692403886202)"  x1="0" y1="0" x2="0" y2="56">
<stop offset="0%" style="stop-color:rgb(250,217,97);stop-opacity: 1"/>
<stop offset="100%" style="stop-color:rgb(247,107,28);stop-opacity: 1"/>
</linearGradient>
<path style="stroke: none; stroke-width: 1; stroke-dasharray: none; stroke-linecap: butt; stroke-dashoffset: 0; stroke-linejoin: miter; stroke-miterlimit: 4; fill: url(#SVGID_10_809279); fill-rule: nonzero; opacity: 1;"  paint-order="stroke"  transform=" translate(-594.2551449526748, -243.123462019431)" d="M 575.1 215.3 C 567 216.9 568.1 229.5 572.6 246.4 C 589.4 252.70000000000002 605.1 261.1 619.4 271.2 C 608.7 243.4 592.6 211.9 575.1 215.3 z" stroke-linecap="round" />
</g>
</g>
</g>
		<g transform="matrix(0.34961543454498295 0 0 0.3496154345449829 -2.7668523215942287 -24.965704107328094)"  >
<g style=""  paint-order="stroke"   >
		<g transform="matrix(1 0 0 1 103.98148444138872 -80.50877733323773)"  >
<path style="stroke: none; stroke-width: 1; stroke-dasharray: none; stroke-linecap: butt; stroke-dashoffset: 0; stroke-linejoin: miter; stroke-miterlimit: 4; fill: rgb(46,84,89); fill-rule: nonzero; opacity: 1;"  paint-order="stroke"  transform=" translate(-596.0674965329453, -355.1540942802409)" d="M 539.5 420.3 C 548.9 430.5 541.3 437.40000000000003 557.4 428.2 C 573.5 419 595.4 393.2 608.1999999999999 393 C 620.9999999999999 392.7 624.6999999999999 398.1 630.9 396.1 C 637.1 394.1 633.3 403.90000000000003 642.4 399.90000000000003 C 651.6 395.90000000000003 668.1999999999999 401.00000000000006 665.4 377.50000000000006 C 665.4 377.50000000000006 661.3 348.6000000000001 650.6 335.40000000000003 C 639.9 322.1 640.1 327.00000000000006 632 317.00000000000006 C 623.8 307.00000000000006 610.3 281.80000000000007 592.7 280.50000000000006 C 575.1 279.20000000000005 578.7 272.30000000000007 564.4000000000001 287.40000000000003 C 550.1000000000001 302.50000000000006 544.2 305.50000000000006 544.2 312.70000000000005 C 544.2 319.90000000000003 553.6 328.30000000000007 552.1 336.70000000000005 C 550.6 345.1 547.5 343.1 547 350.70000000000005 C 546.5 358.40000000000003 551.3 363.00000000000006 550.3 371.1 C 549.3 379.3 529.5999999999999 392 527.0999999999999 401.5 C 524.4 410.9 530 410.1 539.5 420.3 z" stroke-linecap="round" />
</g>
		<g transform="matrix(1 0 0 1 101.88565221188674 60.11148948374688)"  >
<path style="stroke: none; stroke-width: 1; stroke-dasharray: none; stroke-linecap: butt; stroke-dashoffset: 0; stroke-linejoin: miter; stroke-miterlimit: 4; fill: rgb(46,84,89); fill-rule: nonzero; opacity: 1;"  paint-order="stroke"  transform=" translate(-593.9716643034433, -495.7743610972255)" d="M 668.1 427.8 C 665.9 412.2 654.6 434.7 651 438.8 C 647.4 442.90000000000003 639.8 437.90000000000003 632.9 432.2 C 626.1 426.4 625.6999999999999 434.59999999999997 616.5 442.09999999999997 C 607.4 449.59999999999997 592.7 452.49999999999994 582.6 454.2 C 572.5 455.9 568.6 461.2 566.9 470 C 565.1999999999999 478.9 559.6999999999999 473.9 547.3 477.7 C 534.9 481.5 538.8 489.59999999999997 530.0999999999999 498.8 C 521.3999999999999 508.00000000000006 524.8 511.2 521.6999999999999 536.6 C 518.5999999999999 562 518.9 563.5 526.3 564.2 C 533.5999999999999 565 536.8 577.5 543.0999999999999 559.6 C 549.3999999999999 541.7 567.0999999999999 540.9 576.4999999999999 530 C 585.8999999999999 519.1 614.9999999999999 510.4 627.3999999999999 494.9 C 639.7999999999998 479.4 650.8999999999999 491.79999999999995 657.0999999999999 485.5 C 663.2 479.1 668.2 428.7 668.1 427.8 z" stroke-linecap="round" />
</g>
		<g transform="matrix(1 0 0 1 28.441041671087987 10.74934924540122)"  >
<path style="stroke: none; stroke-width: 1; stroke-dasharray: none; stroke-linecap: butt; stroke-dashoffset: 0; stroke-linejoin: miter; stroke-miterlimit: 4; fill: rgb(46,84,89); fill-rule: nonzero; opacity: 1;"  paint-order="stroke"  transform=" translate(-520.5270537626445, -446.41222085887983)" d="M 510.4 443.2 C 509.5 447.4 508.5 451.09999999999997 509.4 451.9 C 510.29999999999995 452.7 514.4 461.59999999999997 521.3 456.79999999999995 C 528.1999999999999 451.9 532.1999999999999 448.9 532 443.9 C 531.9 438.9 526 430 517.2 437.5 C 514.6 439.6 511.3 439 510.4 443.2 z" stroke-linecap="round" />
</g>
		<g transform="matrix(1 0 0 1 -48.97575675609971 -118.6230794978137)"  >
<path style="stroke: none; stroke-width: 1; stroke-dasharray: none; stroke-linecap: butt; stroke-dashoffset: 0; stroke-linejoin: miter; stroke-miterlimit: 4; fill: rgb(46,84,89); fill-rule: nonzero; opacity: 1;"  paint-order="stroke"  transform=" translate(-443.1102553354568, -317.0397921156649)" d="M 399.3 357.5 C 407.7 364.1 411.8 372.1 416.90000000000003 374.4 C 422.00000000000006 376.69999999999993 426.1 377 427.6 369.79999999999995 C 429.1 362.69999999999993 427.1 354.99999999999994 431.90000000000003 348.69999999999993 C 436.8 342.3999999999999 435.00000000000006 339.8999999999999 455.1 339.8999999999999 C 475.2 339.8999999999999 494.40000000000003 342.99999999999994 499.90000000000003 337.8999999999999 C 505.40000000000003 332.7999999999999 512 327.5999999999999 512 317.2999999999999 C 512 306.9999999999999 499.7 291.6999999999999 499.9 281.9999999999999 C 500 272.2999999999999 502.29999999999995 270.7999999999999 493.4 267.1999999999999 C 484.5 263.59999999999985 480.09999999999997 256.09999999999985 468.4 258.7999999999999 C 449 263.1999999999999 444.4 264.1999999999999 437.79999999999995 268.7999999999999 C 431.19999999999993 273.3999999999999 435.99999999999994 270.7999999999999 423.49999999999994 277.8999999999999 C 410.99999999999994 284.8999999999999 393.09999999999997 290.7999999999999 392.59999999999997 292.2999999999999 C 392.09999999999997 293.7999999999999 384.9 306.5999999999999 382.9 312.6999999999999 C 380.9 318.7999999999999 369.09999999999997 321.39999999999986 376.79999999999995 334.09999999999985 C 384.5 346.8 390.9 350.9 399.3 357.5 z" stroke-linecap="round" />
</g>
		<g transform="matrix(1 0 0 1 -105.8530717974673 42.3370741766401)"  >
<path style="stroke: none; stroke-width: 1; stroke-dasharray: none; stroke-linecap: butt; stroke-dashoffset: 0; stroke-linejoin: miter; stroke-miterlimit: 4; fill: rgb(46,84,89); fill-rule: nonzero; opacity: 1;"  paint-order="stroke"  transform=" translate(-386.23294029408925, -477.9999457901187)" d="M 446 503.8 C 426.1 483.5 405.8 477.8 405 467.40000000000003 C 404.2 457.1 397.7 435.90000000000003 390.4 428.50000000000006 C 383.09999999999997 421.1000000000001 379.29999999999995 395.40000000000003 340.2 399.80000000000007 C 340.2 399.80000000000007 327.9 398.1000000000001 321.8 406.1000000000001 C 315.7 414.1000000000001 316.40000000000003 414.50000000000006 316.1 430.2000000000001 C 315.70000000000005 445.9000000000001 319.5 452.4000000000001 319.90000000000003 465.1000000000001 C 320.3 477.7000000000001 322.20000000000005 489.6000000000001 347.50000000000006 496.1000000000001 C 372.80000000000007 502.6000000000001 371.20000000000005 497.6000000000001 392.30000000000007 515.2 C 413.4000000000001 532.8000000000001 447.80000000000007 560.8000000000001 453.6000000000001 556.2 C 459.30000000000007 551.6 448.2000000000001 549.3000000000001 449.80000000000007 532.5 C 451.40000000000003 515.6999999999999 465.9 524.1 446 503.8 z" stroke-linecap="round" />
</g>
		<g transform="matrix(1 0 0 1 -136.55413682699339 -70.63418984955115)"  >
<path style="stroke: none; stroke-width: 1; stroke-dasharray: none; stroke-linecap: butt; stroke-dashoffset: 0; stroke-linejoin: miter; stroke-miterlimit: 4; fill: rgb(46,84,89); fill-rule: nonzero; opacity: 1;"  paint-order="stroke"  transform=" translate(-355.53187526456315, -365.02868176392747)" d="M 345.3 383.2 C 352.6 380.5 364.1 381.4 369.8 376.9 C 375.5 372.4 377.8 366.7 371.7 363.2 C 365.59999999999997 359.8 358.3 346.7 352.2 346.3 C 346.09999999999997 345.90000000000003 342.2 356 342.2 356 C 336.8 363.2 337.59999999999997 367.8 336.09999999999997 373.1 C 334.59999999999997 378.40000000000003 338 385.9 345.3 383.2 z" stroke-linecap="round" />
</g>
		<g transform="matrix(1 0 0 1 6.058492321441008 152.9305402622175)"  >
<path style="stroke: none; stroke-width: 1; stroke-dasharray: none; stroke-linecap: butt; stroke-dashoffset: 0; stroke-linejoin: miter; stroke-miterlimit: 4; fill: rgb(46,84,89); fill-rule: nonzero; opacity: 1;"  paint-order="stroke"  transform=" translate(-498.14450441299755, -588.5934118756961)" d="M 505 578.4 C 486.9 568.6999999999999 499.1 574.6 492 566.9 C 484.9 559.1999999999999 482.6 568.9 476.6 576.9 C 470.6 584.8 469.3 583 467 586.6 C 464.7 590.2 468.5 596.8000000000001 470.3 601.4 C 471.2 603.6 472 607.1999999999999 472.5 610.5 C 483.1 612.2 494 613.1 505 613.1 C 511.2 613.1 517.3 612.8000000000001 523.4 612.3000000000001 C 523.6 611.5000000000001 523.8 610.8000000000001 523.9 610.1 C 526 600.9 527.6999999999999 600.1 529.6999999999999 596.3000000000001 C 531.8 592.4 523.1 588.1 505 578.4 z" stroke-linecap="round" />
</g>
</g>
</g>
		<g transform="matrix(0.34961543454498295 0 0 0.3496154345449829 68.30561516473966 36.75507918924359)"  >
<linearGradient id="SVGID_10_809280" gradientUnits="userSpaceOnUse" gradientTransform="matrix(1 0 0 1 519.2 409.70388107805013)"  x1="0" y1="0" x2="0" y2="405">
<stop offset="0%" style="stop-color:rgb(250,217,97);stop-opacity: 1"/>
<stop offset="100%" style="stop-color:rgb(247,107,28);stop-opacity: 1"/>
</linearGradient>
<path style="stroke: none; stroke-width: 1; stroke-dasharray: none; stroke-linecap: butt; stroke-dashoffset: 0; stroke-linejoin: miter; stroke-miterlimit: 4; fill: url(#SVGID_10_809280); fill-rule: nonzero; opacity: 1;"  paint-order="stroke"  transform=" translate(-695.3735688289564, -612.2019405390251)" d="M 646.8 810.2 C 646.8 810.2 645.9 694.3000000000001 690 660.8000000000001 C 733.7 627.6 743.6 557.4000000000001 759.7 521.4000000000001 C 775.8000000000001 485.4000000000001 819.4000000000001 450.2000000000001 853.9000000000001 444.0000000000001 C 888.4000000000001 437.8000000000001 868.5000000000001 404.9000000000001 827.1000000000001 410.3000000000001 C 785.7000000000002 415.7000000000001 742.8000000000002 435.60000000000014 711.4000000000001 474.60000000000014 C 680 513.6000000000001 638.6000000000001 525.2000000000002 595.0000000000001 549.7000000000002 C 551.3000000000001 574.2000000000002 529.1000000000001 657.7000000000002 519.2000000000002 814.7000000000002 L 646.8 810.2 z" stroke-linecap="round" />
</g>
		<g transform="matrix(0.34961543454498295 0 0 0.3496154345449829 -68.30561516473972 36.75507918924359)"  >
<linearGradient id="SVGID_10_809281" gradientUnits="userSpaceOnUse" gradientTransform="matrix(1 0 0 1 128.45286234208737 409.70388107805013)"  x1="0" y1="0" x2="0" y2="405">
<stop offset="0%" style="stop-color:rgb(250,217,97);stop-opacity: 1"/>
<stop offset="100%" style="stop-color:rgb(247,107,28);stop-opacity: 1"/>
</linearGradient>
<path style="stroke: none; stroke-width: 1; stroke-dasharray: none; stroke-linecap: butt; stroke-dashoffset: 0; stroke-linejoin: miter; stroke-miterlimit: 4; fill: url(#SVGID_10_809281); fill-rule: nonzero; opacity: 1;"  paint-order="stroke"  transform=" translate(-304.6264311710437, -612.2019405390251)" d="M 353.2 810.2 C 353.2 810.2 354.09999999999997 694.3000000000001 310 660.8000000000001 C 266.3 627.6 256.4 557.4000000000001 240.3 521.4000000000001 C 224.20000000000005 485.4000000000001 180.60000000000002 450.2000000000001 146.10000000000002 444.0000000000001 C 111.60000000000002 437.8000000000001 131.50000000000003 404.9000000000001 172.90000000000003 410.3000000000001 C 214.30000000000004 415.7000000000001 257.20000000000005 435.60000000000014 288.6 474.60000000000014 C 320 513.6000000000001 361.40000000000003 525.2000000000002 405 549.7000000000002 C 448.7 574.2000000000002 470.9 657.7000000000002 480.8 814.7000000000002 L 353.2 810.2 z" stroke-linecap="round" />
</g>
</g>
</g>
<g transform="matrix(1.3475984877527858 1.3692371658694193 -1.3692371658694196 1.3475984877527858 418.84917333343355 605.7971993239432)" id="text-logo-0"  >
<g style=""  paint-order="stroke"   >
		<g transform="matrix(1 0 0 1 0 0)" id="text-logo-0-path-0"  >
<path style="stroke: none; stroke-width: 0; stroke-dasharray: none; stroke-linecap: butt; stroke-dashoffset: 0; stroke-linejoin: miter; stroke-miterlimit: 4; fill: rgb(46,87,90); fill-rule: nonzero; opacity: 1;"  paint-order="stroke"  transform=" translate(-18.150000000000002, 19.25)" d="M 2.2 -15.4 L 22.39 -15.4 C 28.98 -15.4 34.1 -20.24 34.1 -26.79 C 34.1 -33.44 29.04 -38.5 22.39 -38.5 L 2.2 -38.5 Z M 2.2 0 L 9.9 0 L 9.9 -12.65 L 2.2 -12.65 Z M 9.9 -23.1 L 9.9 -30.8 L 22.39 -30.8 C 25.3 -30.8 26.4 -29.7 26.4 -26.79 C 26.4 -24.09 25.36 -23.1 22.39 -23.1 Z" stroke-linecap="round" />
</g>
</g>
</g>
<g transform="matrix(1.7061081114934022 0.8831914925360936 -0.8831914925360936 1.7061081114934022 497.35325286803265 663.699461823036)" id="text-logo-1"  >
<g style=""  paint-order="stroke"   >
		<g transform="matrix(0.9999999999999999 0 0 1 -2.842171e-14 0)" id="text-logo-1-path-0"  >
<path style="stroke: none; stroke-width: 0; stroke-dasharray: none; stroke-linecap: butt; stroke-dashoffset: 0; stroke-linejoin: miter; stroke-miterlimit: 4; fill: rgb(46,87,90); fill-rule: nonzero; opacity: 1;"  paint-order="stroke"  transform=" translate(-18.150000000000002, 19.25)" d="M 34.1 0 L 34.1 -26.79 C 34.1 -33.44 29.04 -38.5 22.39 -38.5 L 13.92 -38.5 C 7.26 -38.5 2.2 -33.44 2.2 -26.79 L 2.2 0 L 9.9 0 L 9.9 -26.79 C 9.9 -29.7 11 -30.8 13.92 -30.8 L 22.39 -30.8 C 25.3 -30.8 26.4 -29.7 26.4 -26.79 L 26.4 -23.1 L 12.65 -23.1 L 12.65 -15.4 L 26.4 -15.4 L 26.4 0 Z" stroke-linecap="round" />
</g>
</g>
</g>
<g transform="matrix(1.897271649994155 0.3019807721034092 -0.3019807721034092 1.8972716499941553 591.2243541356397 694.5748421423488)" id="text-logo-2"  >
<g style=""  paint-order="stroke"   >
		<g transform="matrix(1 0 0 1 0 0)" id="text-logo-2-path-0"  >
<path style="stroke: none; stroke-width: 0; stroke-dasharray: none; stroke-linecap: butt; stroke-dashoffset: 0; stroke-linejoin: miter; stroke-miterlimit: 4; fill: rgb(46,87,90); fill-rule: nonzero; opacity: 1;"  paint-order="stroke"  transform=" translate(-18.7, 19.25)" d="M 14.85 -28.05 L 14.85 0 L 22.55 0 L 22.55 -28.05 Z M 2.2 -30.8 L 35.2 -30.8 L 35.2 -38.5 L 2.2 -38.5 Z" stroke-linecap="round" />
</g>
</g>
</g>
<g transform="matrix(1.8960009394011395 -0.3098589007624466 0.3098589007624466 1.8960009394011397 690.04822527192 694.3713371825773)" id="text-logo-3"  >
<g style=""  paint-order="stroke"   >
		<g transform="matrix(0.9999999999999999 0 0 1 0 0)" id="text-logo-3-path-0"  >
<path style="stroke: none; stroke-width: 0; stroke-dasharray: none; stroke-linecap: butt; stroke-dashoffset: 0; stroke-linejoin: miter; stroke-miterlimit: 4; fill: rgb(46,87,90); fill-rule: nonzero; opacity: 1;"  paint-order="stroke"  transform=" translate(-18.150000000000002, 19.25)" d="M 2.2 -38.5 L 2.2 0 L 9.9 0 L 9.9 -38.5 Z M 12.65 -15.4 L 26.4 -15.4 L 26.4 0 L 34.1 0 L 34.1 -38.5 L 26.4 -38.5 L 26.4 -23.1 L 12.65 -23.1 Z" stroke-linecap="round" />
</g>
</g>
</g>
<g transform="matrix(1.7061081114934025 -0.8831914925360934 0.8831914925360934 1.7061081114934027 782.6467471319673 663.699461823036)" id="text-logo-4"  >
<g style=""  paint-order="stroke"   >
		<g transform="matrix(1 0 0 1 0 0)" id="text-logo-4-path-0"  >
<path style="stroke: none; stroke-width: 0; stroke-dasharray: none; stroke-linecap: butt; stroke-dashoffset: 0; stroke-linejoin: miter; stroke-miterlimit: 4; fill: rgb(46,87,90); fill-rule: nonzero; opacity: 1;"  paint-order="stroke"  transform=" translate(-18.150000000000002, 19.25)" d="M 9.9 -15.4 L 9.9 -26.79 C 9.9 -29.7 11 -30.8 13.92 -30.8 L 22.39 -30.8 C 25.3 -30.8 26.4 -29.7 26.4 -26.79 L 26.4 -11.71 C 26.4 -8.8 25.3 -7.7 22.39 -7.7 L 13.92 -7.7 C 11 -7.7 9.9 -8.8 9.9 -11.71 L 9.9 -12.65 L 2.2 -12.65 L 2.2 -11.71 C 2.2 -5.06 7.26 0 13.92 0 L 22.39 0 C 29.04 0 34.1 -5.06 34.1 -11.71 L 34.1 -26.79 C 34.1 -33.44 29.04 -38.5 22.39 -38.5 L 13.92 -38.5 C 7.26 -38.5 2.2 -33.44 2.2 -26.79 L 2.2 -15.4 Z" stroke-linecap="round" />
</g>
</g>
</g>
<g transform="matrix(1.3475984877527858 -1.3692371658694193 1.3692371658694196 1.3475984877527858 861.1508266665664 605.7971993239432)" id="text-logo-5"  >
<g style=""  paint-order="stroke"   >
		<g transform="matrix(1 0 0 1 0 0)" id="text-logo-5-path-0"  >
<path style="stroke: none; stroke-width: 0; stroke-dasharray: none; stroke-linecap: butt; stroke-dashoffset: 0; stroke-linejoin: miter; stroke-miterlimit: 4; fill: rgb(46,87,90); fill-rule: nonzero; opacity: 1;"  paint-order="stroke"  transform=" translate(-18.150000000000002, 19.25)" d="M 30.25 -38.5 L 13.92 -38.5 C 7.26 -38.5 2.2 -33.44 2.2 -26.79 C 2.2 -20.24 7.32 -15.4 13.92 -15.4 L 22.39 -15.4 C 25.36 -15.4 26.4 -14.41 26.4 -11.71 C 26.4 -8.8 25.3 -7.7 22.39 -7.7 L 3.85 -7.7 L 3.85 0 L 22.39 0 C 29.04 0 34.1 -5.06 34.1 -11.71 C 34.1 -18.26 28.98 -23.1 22.39 -23.1 L 13.92 -23.1 C 10.95 -23.1 9.9 -24.09 9.9 -26.79 C 9.9 -29.7 11 -30.8 13.92 -30.8 L 30.25 -30.8 Z" stroke-linecap="round" />
</g>
</g>
</g>
<g transform="matrix(1.9211538461538462 0 0 1.9211538461538462 641.3127380392009 797.5842183496355)" id="tagline-e556b81b-0dc1-4468-8cbc-c43584bade1f-logo"  >
<g style=""  paint-order="stroke"   >
		<g transform="matrix(1 0 0 1 0 0)" id="tagline-e556b81b-0dc1-4468-8cbc-c43584bade1f-logo-path-0"  >
<path style="stroke: none; stroke-width: 0; stroke-dasharray: none; stroke-linecap: butt; stroke-dashoffset: 0; stroke-linejoin: miter; stroke-miterlimit: 4; fill: rgb(45,85,92); fill-rule: nonzero; opacity: 1;"  paint-order="stroke"  transform=" translate(-160.3331496824546, 11.85)" d="M 10.44 0.27 Q 7.79 0.27 5.78 -0.77 Q 3.77 -1.8 2.69 -3.67 Q 1.6 -5.54 1.6 -7.99 L 1.6 -7.99 L 1.6 -15.84 Q 1.6 -18.29 2.69 -20.16 Q 3.77 -22.03 5.78 -23.05 Q 7.79 -24.07 10.44 -24.07 L 10.44 -24.07 Q 13.06 -24.07 15.05 -23.1 Q 17.03 -22.13 18.14 -20.35 Q 19.24 -18.56 19.24 -16.22 L 19.24 -16.22 Q 19.24 -15.91 18.84 -15.84 L 18.84 -15.84 L 14.86 -15.61 L 14.79 -15.61 Q 14.45 -15.61 14.45 -15.98 L 14.45 -15.98 Q 14.45 -17.78 13.35 -18.87 Q 12.24 -19.96 10.44 -19.96 L 10.44 -19.96 Q 8.6 -19.96 7.5 -18.87 Q 6.39 -17.78 6.39 -15.98 L 6.39 -15.98 L 6.39 -7.79 Q 6.39 -6.02 7.5 -4.93 Q 8.6 -3.84 10.44 -3.84 L 10.44 -3.84 Q 12.24 -3.84 13.35 -4.93 Q 14.45 -6.02 14.45 -7.79 L 14.45 -7.79 Q 14.45 -8.16 14.86 -8.16 L 14.86 -8.16 L 18.84 -7.99 Q 19.01 -7.99 19.13 -7.89 Q 19.24 -7.79 19.24 -7.65 L 19.24 -7.65 Q 19.24 -5.3 18.14 -3.5 Q 17.03 -1.7 15.05 -0.71 Q 13.06 0.27 10.44 0.27 L 10.44 0.27 Z M 38.79 -23.39 Q 38.79 -23.56 38.91 -23.68 Q 39.03 -23.8 39.2 -23.8 L 39.2 -23.8 L 43.18 -23.8 Q 43.35 -23.8 43.47 -23.68 Q 43.59 -23.56 43.59 -23.39 L 43.59 -23.39 L 43.59 -0.41 Q 43.59 -0.24 43.47 -0.12 Q 43.35 0 43.18 0 L 43.18 0 L 39.2 0 Q 39.03 0 38.91 -0.12 Q 38.79 -0.24 38.79 -0.41 L 38.79 -0.41 L 38.79 -9.79 Q 38.79 -9.96 38.62 -9.96 L 38.62 -9.96 L 31.11 -9.96 Q 30.94 -9.96 30.94 -9.79 L 30.94 -9.79 L 30.94 -0.41 Q 30.94 -0.24 30.82 -0.12 Q 30.7 0 30.53 0 L 30.53 0 L 26.55 0 Q 26.38 0 26.27 -0.12 Q 26.15 -0.24 26.15 -0.41 L 26.15 -0.41 L 26.15 -23.39 Q 26.15 -23.56 26.27 -23.68 Q 26.38 -23.8 26.55 -23.8 L 26.55 -23.8 L 30.53 -23.8 Q 30.7 -23.8 30.82 -23.68 Q 30.94 -23.56 30.94 -23.39 L 30.94 -23.39 L 30.94 -14.25 Q 30.94 -14.08 31.11 -14.08 L 31.11 -14.08 L 38.62 -14.08 Q 38.79 -14.08 38.79 -14.25 L 38.79 -14.25 L 38.79 -23.39 Z M 59.36 0.37 Q 56.71 0.37 54.69 -0.71 Q 52.67 -1.8 51.54 -3.76 Q 50.42 -5.71 50.42 -8.26 L 50.42 -8.26 L 50.42 -15.54 Q 50.42 -18.05 51.54 -19.99 Q 52.67 -21.93 54.69 -23 Q 56.71 -24.07 59.36 -24.07 L 59.36 -24.07 Q 62.05 -24.07 64.07 -23 Q 66.1 -21.93 67.22 -19.99 Q 68.34 -18.05 68.34 -15.54 L 68.34 -15.54 L 68.34 -8.26 Q 68.34 -5.71 67.22 -3.74 Q 66.1 -1.77 64.07 -0.7 Q 62.05 0.37 59.36 0.37 L 59.36 0.37 Z M 59.36 -3.74 Q 61.23 -3.74 62.39 -4.93 Q 63.55 -6.12 63.55 -8.09 L 63.55 -8.09 L 63.55 -15.57 Q 63.55 -17.54 62.41 -18.75 Q 61.27 -19.96 59.36 -19.96 L 59.36 -19.96 Q 57.49 -19.96 56.35 -18.75 Q 55.22 -17.54 55.22 -15.57 L 55.22 -15.57 L 55.22 -8.09 Q 55.22 -6.12 56.35 -4.93 Q 57.49 -3.74 59.36 -3.74 L 59.36 -3.74 Z M 83.88 0.37 Q 81.23 0.37 79.2 -0.71 Q 77.18 -1.8 76.06 -3.76 Q 74.94 -5.71 74.94 -8.26 L 74.94 -8.26 L 74.94 -15.54 Q 74.94 -18.05 76.06 -19.99 Q 77.18 -21.93 79.2 -23 Q 81.23 -24.07 83.88 -24.07 L 83.88 -24.07 Q 86.56 -24.07 88.59 -23 Q 90.61 -21.93 91.73 -19.99 Q 92.85 -18.05 92.85 -15.54 L 92.85 -15.54 L 92.85 -8.26 Q 92.85 -5.71 91.73 -3.74 Q 90.61 -1.77 88.59 -0.7 Q 86.56 0.37 83.88 0.37 L 83.88 0.37 Z M 83.88 -3.74 Q 85.75 -3.74 86.9 -4.93 Q 88.06 -6.12 88.06 -8.09 L 88.06 -8.09 L 88.06 -15.57 Q 88.06 -17.54 86.92 -18.75 Q 85.78 -19.96 83.88 -19.96 L 83.88 -19.96 Q 82.01 -19.96 80.87 -18.75 Q 79.73 -17.54 79.73 -15.57 L 79.73 -15.57 L 79.73 -8.09 Q 79.73 -6.12 80.87 -4.93 Q 82.01 -3.74 83.88 -3.74 L 83.88 -3.74 Z M 108.09 0.27 Q 105.37 0.27 103.33 -0.6 Q 101.29 -1.46 100.18 -3.08 Q 99.08 -4.69 99.08 -6.83 L 99.08 -6.83 L 99.08 -7.58 Q 99.08 -7.75 99.2 -7.87 Q 99.31 -7.99 99.48 -7.99 L 99.48 -7.99 L 103.36 -7.99 Q 103.53 -7.99 103.65 -7.87 Q 103.77 -7.75 103.77 -7.58 L 103.77 -7.58 L 103.77 -7.07 Q 103.77 -5.71 105.03 -4.78 Q 106.28 -3.84 108.43 -3.84 L 108.43 -3.84 Q 110.23 -3.84 111.11 -4.61 Q 112 -5.37 112 -6.49 L 112 -6.49 Q 112 -7.31 111.45 -7.87 Q 110.91 -8.43 109.97 -8.86 Q 109.04 -9.28 107 -10.03 L 107 -10.03 Q 104.72 -10.81 103.14 -11.63 Q 101.56 -12.44 100.49 -13.86 Q 99.42 -15.27 99.42 -17.34 L 99.42 -17.34 Q 99.42 -19.38 100.47 -20.91 Q 101.52 -22.44 103.39 -23.26 Q 105.26 -24.07 107.71 -24.07 L 107.71 -24.07 Q 110.3 -24.07 112.32 -23.15 Q 114.34 -22.24 115.48 -20.59 Q 116.62 -18.94 116.62 -16.76 L 116.62 -16.76 L 116.62 -16.25 Q 116.62 -16.08 116.5 -15.96 Q 116.38 -15.84 116.21 -15.84 L 116.21 -15.84 L 112.3 -15.84 Q 112.13 -15.84 112.01 -15.96 Q 111.89 -16.08 111.89 -16.25 L 111.89 -16.25 L 111.89 -16.52 Q 111.89 -17.95 110.72 -18.96 Q 109.55 -19.96 107.51 -19.96 L 107.51 -19.96 Q 105.91 -19.96 105.01 -19.28 Q 104.11 -18.6 104.11 -17.41 L 104.11 -17.41 Q 104.11 -16.56 104.64 -15.98 Q 105.16 -15.4 106.2 -14.94 Q 107.24 -14.48 109.41 -13.7 L 109.41 -13.7 Q 111.83 -12.82 113.2 -12.14 Q 114.58 -11.46 115.69 -10.12 Q 116.79 -8.77 116.79 -6.63 L 116.79 -6.63 Q 116.79 -3.43 114.44 -1.58 Q 112.1 0.27 108.09 0.27 L 108.09 0.27 Z M 140.08 -20.09 Q 140.08 -19.92 139.96 -19.8 Q 139.84 -19.69 139.67 -19.69 L 139.67 -19.69 L 128.52 -19.69 Q 128.35 -19.69 128.35 -19.52 L 128.35 -19.52 L 128.35 -14.25 Q 128.35 -14.08 128.52 -14.08 L 128.52 -14.08 L 135.83 -14.08 Q 136 -14.08 136.12 -13.96 Q 136.24 -13.84 136.24 -13.67 L 136.24 -13.67 L 136.24 -10.37 Q 136.24 -10.2 136.12 -10.08 Q 136 -9.96 135.83 -9.96 L 135.83 -9.96 L 128.52 -9.96 Q 128.35 -9.96 128.35 -9.79 L 128.35 -9.79 L 128.35 -4.28 Q 128.35 -4.11 128.52 -4.11 L 128.52 -4.11 L 139.67 -4.11 Q 139.84 -4.11 139.96 -4 Q 140.08 -3.88 140.08 -3.71 L 140.08 -3.71 L 140.08 -0.41 Q 140.08 -0.24 139.96 -0.12 Q 139.84 0 139.67 0 L 139.67 0 L 123.96 0 Q 123.79 0 123.68 -0.12 Q 123.56 -0.24 123.56 -0.41 L 123.56 -0.41 L 123.56 -23.39 Q 123.56 -23.56 123.68 -23.68 Q 123.79 -23.8 123.96 -23.8 L 123.96 -23.8 L 139.67 -23.8 Q 139.84 -23.8 139.96 -23.68 Q 140.08 -23.56 140.08 -23.39 L 140.08 -23.39 L 140.08 -20.09 Z M 173.54 -20.09 Q 173.54 -19.92 173.42 -19.8 Q 173.3 -19.69 173.13 -19.69 L 173.13 -19.69 L 161.98 -19.69 Q 161.81 -19.69 161.81 -19.52 L 161.81 -19.52 L 161.81 -14.25 Q 161.81 -14.08 161.98 -14.08 L 161.98 -14.08 L 169.29 -14.08 Q 169.46 -14.08 169.58 -13.96 Q 169.69 -13.84 169.69 -13.67 L 169.69 -13.67 L 169.69 -10.37 Q 169.69 -10.2 169.58 -10.08 Q 169.46 -9.96 169.29 -9.96 L 169.29 -9.96 L 161.98 -9.96 Q 161.81 -9.96 161.81 -9.79 L 161.81 -9.79 L 161.81 -4.28 Q 161.81 -4.11 161.98 -4.11 L 161.98 -4.11 L 173.13 -4.11 Q 173.3 -4.11 173.42 -4 Q 173.54 -3.88 173.54 -3.71 L 173.54 -3.71 L 173.54 -0.41 Q 173.54 -0.24 173.42 -0.12 Q 173.3 0 173.13 0 L 173.13 0 L 157.42 0 Q 157.25 0 157.13 -0.12 Q 157.01 -0.24 157.01 -0.41 L 157.01 -0.41 L 157.01 -23.39 Q 157.01 -23.56 157.13 -23.68 Q 157.25 -23.8 157.42 -23.8 L 157.42 -23.8 L 173.13 -23.8 Q 173.3 -23.8 173.42 -23.68 Q 173.54 -23.56 173.54 -23.39 L 173.54 -23.39 L 173.54 -20.09 Z M 195.57 -23.53 Q 195.74 -23.8 196.04 -23.8 L 196.04 -23.8 L 200.02 -23.8 Q 200.19 -23.8 200.31 -23.68 Q 200.43 -23.56 200.43 -23.39 L 200.43 -23.39 L 200.43 -0.41 Q 200.43 -0.24 200.31 -0.12 Q 200.19 0 200.02 0 L 200.02 0 L 196.04 0 Q 195.87 0 195.76 -0.12 Q 195.64 -0.24 195.64 -0.41 L 195.64 -0.41 L 195.64 -15.4 Q 195.64 -15.54 195.57 -15.54 Q 195.5 -15.54 195.43 -15.44 L 195.43 -15.44 L 191.83 -9.79 Q 191.66 -9.52 191.35 -9.52 L 191.35 -9.52 L 189.35 -9.52 Q 189.04 -9.52 188.87 -9.79 L 188.87 -9.79 L 185.27 -15.44 Q 185.2 -15.54 185.13 -15.52 Q 185.06 -15.5 185.06 -15.37 L 185.06 -15.37 L 185.06 -0.41 Q 185.06 -0.24 184.94 -0.12 Q 184.82 0 184.65 0 L 184.65 0 L 180.68 0 Q 180.51 0 180.39 -0.12 Q 180.27 -0.24 180.27 -0.41 L 180.27 -0.41 L 180.27 -23.39 Q 180.27 -23.56 180.39 -23.68 Q 180.51 -23.8 180.68 -23.8 L 180.68 -23.8 L 184.65 -23.8 Q 184.96 -23.8 185.13 -23.53 L 185.13 -23.53 L 190.23 -15.61 Q 190.33 -15.4 190.43 -15.61 L 190.43 -15.61 L 195.57 -23.53 Z M 217.8 -23.83 Q 220.05 -23.83 221.75 -22.92 Q 223.45 -22 224.38 -20.32 Q 225.32 -18.63 225.32 -16.46 L 225.32 -16.46 Q 225.32 -14.31 224.35 -12.68 Q 223.38 -11.05 221.63 -10.15 Q 219.88 -9.25 217.6 -9.25 L 217.6 -9.25 L 212.77 -9.25 Q 212.6 -9.25 212.6 -9.08 L 212.6 -9.08 L 212.6 -0.41 Q 212.6 -0.24 212.48 -0.12 Q 212.36 0 212.19 0 L 212.19 0 L 208.22 0 Q 208.05 0 207.93 -0.12 Q 207.81 -0.24 207.81 -0.41 L 207.81 -0.41 L 207.81 -23.43 Q 207.81 -23.6 207.93 -23.72 Q 208.05 -23.83 208.22 -23.83 L 208.22 -23.83 L 217.8 -23.83 Z M 217.09 -13.09 Q 218.65 -13.09 219.61 -13.99 Q 220.56 -14.89 220.56 -16.35 L 220.56 -16.35 Q 220.56 -17.85 219.61 -18.77 Q 218.65 -19.69 217.09 -19.69 L 217.09 -19.69 L 212.77 -19.69 Q 212.6 -19.69 212.6 -19.52 L 212.6 -19.52 L 212.6 -13.26 Q 212.6 -13.09 212.77 -13.09 L 212.77 -13.09 L 217.09 -13.09 Z M 244.9 0 Q 244.56 0 244.46 -0.34 L 244.46 -0.34 L 243.44 -3.67 Q 243.37 -3.81 243.27 -3.81 L 243.27 -3.81 L 234.91 -3.81 Q 234.8 -3.81 234.74 -3.67 L 234.74 -3.67 L 233.75 -0.34 Q 233.65 0 233.31 0 L 233.31 0 L 228.99 0 Q 228.79 0 228.68 -0.12 Q 228.58 -0.24 228.65 -0.48 L 228.65 -0.48 L 235.99 -23.46 Q 236.1 -23.8 236.44 -23.8 L 236.44 -23.8 L 241.77 -23.8 Q 242.11 -23.8 242.22 -23.46 L 242.22 -23.46 L 249.56 -0.48 Q 249.59 -0.41 249.59 -0.31 L 249.59 -0.31 Q 249.59 0 249.22 0 L 249.22 0 L 244.9 0 Z M 235.96 -7.72 Q 235.93 -7.51 236.1 -7.51 L 236.1 -7.51 L 242.08 -7.51 Q 242.28 -7.51 242.22 -7.72 L 242.22 -7.72 L 239.16 -17.82 Q 239.12 -17.95 239.05 -17.94 Q 238.99 -17.92 238.95 -17.82 L 238.95 -17.82 L 235.96 -7.72 Z M 269.48 -23.8 Q 269.65 -23.8 269.77 -23.68 Q 269.89 -23.56 269.89 -23.39 L 269.89 -23.39 L 269.89 -20.06 Q 269.89 -19.89 269.77 -19.77 Q 269.65 -19.65 269.48 -19.65 L 269.48 -19.65 L 263.4 -19.65 Q 263.23 -19.65 263.23 -19.48 L 263.23 -19.48 L 263.23 -0.41 Q 263.23 -0.24 263.11 -0.12 Q 262.99 0 262.82 0 L 262.82 0 L 258.84 0 Q 258.67 0 258.55 -0.12 Q 258.43 -0.24 258.43 -0.41 L 258.43 -0.41 L 258.43 -19.48 Q 258.43 -19.65 258.26 -19.65 L 258.26 -19.65 L 252.35 -19.65 Q 252.18 -19.65 252.06 -19.77 Q 251.94 -19.89 251.94 -20.06 L 251.94 -20.06 L 251.94 -23.39 Q 251.94 -23.56 252.06 -23.68 Q 252.18 -23.8 252.35 -23.8 L 252.35 -23.8 L 269.48 -23.8 Z M 289 -23.39 Q 289 -23.56 289.12 -23.68 Q 289.24 -23.8 289.41 -23.8 L 289.41 -23.8 L 293.39 -23.8 Q 293.56 -23.8 293.68 -23.68 Q 293.79 -23.56 293.79 -23.39 L 293.79 -23.39 L 293.79 -0.41 Q 293.79 -0.24 293.68 -0.12 Q 293.56 0 293.39 0 L 293.39 0 L 289.41 0 Q 289.24 0 289.12 -0.12 Q 289 -0.24 289 -0.41 L 289 -0.41 L 289 -9.79 Q 289 -9.96 288.83 -9.96 L 288.83 -9.96 L 281.32 -9.96 Q 281.15 -9.96 281.15 -9.79 L 281.15 -9.79 L 281.15 -0.41 Q 281.15 -0.24 281.03 -0.12 Q 280.91 0 280.74 0 L 280.74 0 L 276.76 0 Q 276.59 0 276.47 -0.12 Q 276.35 -0.24 276.35 -0.41 L 276.35 -0.41 L 276.35 -23.39 Q 276.35 -23.56 276.47 -23.68 Q 276.59 -23.8 276.76 -23.8 L 276.76 -23.8 L 280.74 -23.8 Q 280.91 -23.8 281.03 -23.68 Q 281.15 -23.56 281.15 -23.39 L 281.15 -23.39 L 281.15 -14.25 Q 281.15 -14.08 281.32 -14.08 L 281.32 -14.08 L 288.83 -14.08 Q 289 -14.08 289 -14.25 L 289 -14.25 L 289 -23.39 Z M 307.53 -0.03 Q 307.36 -0.03 307.24 -0.15 Q 307.12 -0.27 307.12 -0.44 L 307.12 -0.44 L 307.12 -9.04 Q 307.12 -9.18 307.09 -9.25 L 307.09 -9.25 L 300.08 -23.32 Q 300.02 -23.46 300.02 -23.53 L 300.02 -23.53 Q 300.02 -23.8 300.39 -23.8 L 300.39 -23.8 L 304.67 -23.8 Q 305.01 -23.8 305.15 -23.49 L 305.15 -23.49 L 309.4 -14.45 Q 309.5 -14.25 309.6 -14.45 L 309.6 -14.45 L 313.85 -23.49 Q 313.99 -23.8 314.33 -23.8 L 314.33 -23.8 L 318.68 -23.8 Q 318.92 -23.8 319 -23.68 Q 319.09 -23.56 318.99 -23.32 L 318.99 -23.32 L 311.92 -9.25 Q 311.88 -9.18 311.88 -9.04 L 311.88 -9.04 L 311.88 -0.44 Q 311.88 -0.27 311.76 -0.15 Q 311.64 -0.03 311.47 -0.03 L 311.47 -0.03 L 307.53 -0.03 Z" stroke-linecap="round" />
</g>
</g>
</g>
</svg>